<svg xmlns="http://www.w3.org/2000/svg" xmlns:xlink="http://www.w3.org/1999/xlink" width="131" zoomAndPan="magnify" viewBox="0 0 98.25 98.249996" height="131" preserveAspectRatio="xMidYMid meet" version="1.0"><defs><clipPath id="8e67b4e710"><path d="M 0 0 L 97.195312 0 L 97.195312 97.195312 L 0 97.195312 Z M 0 0 " clip-rule="nonzero"/></clipPath><clipPath id="65a5f9b305"><path d="M 48.597656 0 C 21.757812 0 0 21.757812 0 48.597656 C 0 75.4375 21.757812 97.195312 48.597656 97.195312 C 75.4375 97.195312 97.195312 75.4375 97.195312 48.597656 C 97.195312 21.757812 75.4375 0 48.597656 0 Z M 48.597656 0 " clip-rule="nonzero"/></clipPath><clipPath id="47786a15ce"><path d="M 70 12.316406 L 82.535156 12.316406 L 82.535156 25 L 70 25 Z M 70 12.316406 " clip-rule="nonzero"/></clipPath></defs><g clip-path="url(#8e67b4e710)"><g clip-path="url(#65a5f9b305)"><path fill="#c1ff72" d="M 0 0 L 97.195312 0 L 97.195312 97.195312 L 0 97.195312 Z M 0 0 " fill-opacity="1" fill-rule="nonzero"/></g></g><path stroke-linecap="round" transform="matrix(0.26275, 0.26275, -0.26275, 0.26275, 36.889858, -27.424362)" fill-opacity="1" fill="#c0845e" fill-rule="nonzero" stroke-linejoin="round" d="M 141.486095 25.016665 L 183.484805 25.016665 L 183.484805 34.011079 L 141.478662 34.018512 Z M 141.486095 25.016665 " stroke="#000000" stroke-width="4.5" stroke-opacity="1" stroke-miterlimit="4"/><path stroke-linecap="round" transform="matrix(0.371584, 0, 0, 0.371584, 11.450396, 12.055817)" fill-opacity="1" fill="#c0845e" fill-rule="nonzero" stroke-linejoin="round" d="M 103.680787 101.052811 L 90.950252 88.322276 L 29.000587 105.793911 C 23.124146 107.454872 17.773327 110.587572 13.452724 114.908175 C -0.486739 128.847638 -0.486739 151.438819 13.452724 165.378283 L 26.624781 178.550339 C 40.564244 192.489802 63.155425 192.489802 77.094888 178.550339 C 81.415491 174.229737 84.548191 168.878917 86.209153 163.002477 Z M 103.680787 101.052811 " stroke="#000000" stroke-width="4.5" stroke-opacity="1" stroke-miterlimit="4"/><path stroke-linecap="round" transform="matrix(0.26275, 0.26275, -0.26275, 0.26275, 56.153593, 19.0824)" fill-opacity="1" fill="#fff1d7" fill-rule="nonzero" stroke-linejoin="round" d="M 22.326854 150.171222 L 52.328057 150.171222 L 52.320624 159.173069 L 22.326854 159.180503 Z M 22.326854 150.171222 " stroke="#000000" stroke-width="4.5" stroke-opacity="1" stroke-miterlimit="4"/><path stroke-linecap="round" transform="matrix(0.26275, 0.26275, -0.26275, 0.26275, 55.173811, 16.717529)" fill-opacity="1" fill="#fff1d7" fill-rule="nonzero" stroke-linejoin="round" d="M 31.694658 143.812563 L 55.689673 143.812563 L 55.689673 152.806977 L 31.687224 152.814411 Z M 31.694658 143.812563 " stroke="#000000" stroke-width="4.5" stroke-opacity="1" stroke-miterlimit="4"/><path stroke-linecap="round" transform="matrix(0.26275, 0.26275, -0.26275, 0.26275, 50.765878, 6.076355)" fill-opacity="1" fill="#e9bd97" fill-rule="nonzero" stroke-linejoin="round" d="M 63.328022 83.666766 L 81.324284 83.6742 L 81.324284 155.674112 L 63.328022 155.666679 Z M 63.328022 83.666766 " stroke="#000000" stroke-width="4.5" stroke-opacity="1" stroke-miterlimit="4"/><path stroke-linecap="round" transform="matrix(0.371584, 0, 0, 0.371584, 11.450396, 12.055817)" fill-opacity="1" fill="#e9bd97" fill-rule="nonzero" stroke-linejoin="round" d="M 110.513858 94.219741 L 97.783322 81.489206 L 108.39035 75.129194 L 116.873869 83.612714 Z M 110.513858 94.219741 " stroke="#000000" stroke-width="4.5" stroke-opacity="1" stroke-miterlimit="4"/><path stroke-linecap="round" transform="matrix(0.26275, 0.26275, -0.26275, 0.26275, 46.358047, -4.565078)" fill-opacity="1" fill="#c0845e" fill-rule="nonzero" stroke-linejoin="round" d="M 90.464478 86.534589 L 111.471266 86.534589 C 112.065938 86.534589 112.63831 86.64609 113.180948 86.876525 C 113.738453 87.10696 114.229057 87.43403 114.645328 87.8503 C 115.069032 88.274004 115.396101 88.764609 115.619103 89.31468 C 115.856972 89.864752 115.968473 90.437124 115.968473 91.031796 C 115.96104 91.633901 115.849539 92.206273 115.626537 92.756344 C 115.388668 93.306416 115.069032 93.789587 114.645328 94.213291 C 114.221624 94.636995 113.73102 94.964064 113.188381 95.1945 C 112.63831 95.417502 112.058505 95.536436 111.463833 95.536436 L 90.464478 95.529003 C 89.862372 95.536436 89.297434 95.417502 88.747362 95.1945 C 88.189857 94.964064 87.706686 94.644428 87.282982 94.220724 C 86.859279 93.79702 86.532209 93.306416 86.309207 92.756344 C 86.078772 92.198839 85.959837 91.633901 85.967271 91.031796 C 85.967271 90.437124 86.078772 89.864752 86.309207 89.307247 C 86.539642 88.764609 86.866712 88.274004 87.282982 87.857734 C 87.706686 87.43403 88.197291 87.10696 88.739929 86.876525 C 89.297434 86.64609 89.869806 86.534589 90.464478 86.534589 Z M 90.464478 86.534589 " stroke="#000000" stroke-width="4.5" stroke-opacity="1" stroke-miterlimit="4"/><path stroke-linecap="round" transform="matrix(0.26275, 0.26275, -0.26275, 0.26275, 40.644249, -18.359407)" fill-opacity="1" fill="#e9bd97" fill-rule="nonzero" stroke-linejoin="round" d="M 132.092116 17.914018 L 144.089624 17.914018 L 144.089624 89.913931 L 132.092116 89.913931 Z M 132.092116 17.914018 " stroke="#000000" stroke-width="4.5" stroke-opacity="1" stroke-miterlimit="4"/><path stroke-linecap="round" transform="matrix(0.26275, 0.26275, -0.26275, 0.26275, 44.072931, -10.08289)" fill-opacity="1" fill="#c0845e" fill-rule="nonzero" stroke-linejoin="round" d="M 108.308724 71.686894 L 123.309325 71.686894 C 123.911431 71.679461 124.483802 71.805829 125.033874 72.028831 C 125.591379 72.259266 126.07455 72.578902 126.498254 73.002606 C 126.921958 73.42631 127.241594 73.909481 127.472029 74.466986 C 127.695031 75.017057 127.813966 75.581996 127.813966 76.191535 C 127.813966 76.786207 127.702465 77.358578 127.464596 77.90865 C 127.241594 78.458722 126.914524 78.949326 126.498254 79.365596 C 126.07455 79.7893 125.583946 80.11637 125.033874 80.339372 C 124.483802 80.577241 123.911431 80.688742 123.316759 80.688742 L 108.316157 80.688742 C 107.721485 80.688742 107.14168 80.569807 106.591609 80.346805 C 106.041537 80.108936 105.558366 79.7893 105.134662 79.365596 C 104.710958 78.941893 104.391322 78.458722 104.153453 77.90865 C 103.930451 77.358578 103.811517 76.778773 103.811517 76.184101 C 103.811517 75.589429 103.923018 75.017057 104.160887 74.466986 C 104.383889 73.916914 104.710958 73.42631 105.134662 73.002606 C 105.550933 72.586336 106.041537 72.259266 106.599042 72.028831 C 107.14168 71.798395 107.714052 71.686894 108.308724 71.686894 Z M 108.308724 71.686894 " stroke="#000000" stroke-width="4.5" stroke-opacity="1" stroke-miterlimit="4"/><path stroke-linecap="round" transform="matrix(0.26275, 0.26275, -0.26275, 0.26275, 41.787446, -15.600545)" fill-opacity="1" fill="#c0845e" fill-rule="nonzero" stroke-linejoin="round" d="M 123.165146 56.838198 L 138.165748 56.838198 C 138.76042 56.838198 139.332792 56.949699 139.890297 57.180134 C 140.440368 57.403136 140.923539 57.737639 141.33981 58.153909 C 141.763513 58.577613 142.098016 59.060784 142.321018 59.610856 C 142.551454 60.168361 142.662955 60.740733 142.662955 61.335405 C 142.662955 61.930077 142.551454 62.502448 142.321018 63.059953 C 142.098016 63.610025 141.763513 64.093196 141.33981 64.5169 C 140.923539 64.93317 140.440368 65.267673 139.890297 65.490675 C 139.332792 65.721111 138.76042 65.832612 138.165748 65.832612 L 123.165146 65.832612 C 122.570474 65.832612 121.998103 65.721111 121.440598 65.490675 C 120.890526 65.267673 120.399922 64.940604 119.976218 64.5169 C 119.559947 64.100629 119.232878 63.610025 119.009876 63.059953 C 118.77944 62.502448 118.667939 61.930077 118.667939 61.335405 C 118.667939 60.740733 118.77944 60.168361 119.009876 59.610856 C 119.232878 59.060784 119.559947 58.57018 119.976218 58.153909 C 120.399922 57.730206 120.890526 57.403136 121.440598 57.180134 C 121.998103 56.949699 122.570474 56.838198 123.165146 56.838198 Z M 123.165146 56.838198 " stroke="#000000" stroke-width="4.5" stroke-opacity="1" stroke-miterlimit="4"/><path stroke-linecap="round" transform="matrix(0.26275, 0.26275, -0.26275, 0.26275, 39.501582, -21.118051)" fill-opacity="1" fill="#c0845e" fill-rule="nonzero" stroke-linejoin="round" d="M 138.007136 41.988497 L 153.007737 41.988497 C 153.609843 41.981064 154.189648 42.099998 154.732286 42.330434 C 155.289791 42.560869 155.772962 42.880505 156.196666 43.304209 C 156.62037 43.727913 156.940006 44.211084 157.170441 44.768589 C 157.400877 45.311227 157.512378 45.883599 157.512378 46.493138 C 157.512378 47.08781 157.400877 47.660181 157.170441 48.20282 C 156.940006 48.760325 156.62037 49.243496 156.196666 49.667199 C 155.772962 50.090903 155.282358 50.417973 154.732286 50.640975 C 154.189648 50.87141 153.609843 50.990345 153.015171 50.990345 L 138.014569 50.990345 C 137.419897 50.990345 136.840092 50.87141 136.290021 50.648408 C 135.739949 50.410539 135.256778 50.090903 134.833074 49.667199 C 134.40937 49.243496 134.089734 48.760325 133.851865 48.210253 C 133.628863 47.660181 133.509929 47.080376 133.509929 46.485704 C 133.509929 45.891032 133.628863 45.311227 133.851865 44.761155 C 134.082301 44.218517 134.40937 43.727913 134.833074 43.304209 C 135.256778 42.880505 135.739949 42.560869 136.290021 42.323 C 136.840092 42.099998 137.412464 41.988497 138.007136 41.988497 Z M 138.007136 41.988497 " stroke="#000000" stroke-width="4.5" stroke-opacity="1" stroke-miterlimit="4"/><path stroke-linecap="round" transform="matrix(0.26275, 0.26275, -0.26275, 0.26275, 36.889858, -27.424362)" fill-opacity="1" fill="#c0845e" fill-rule="nonzero" stroke-linejoin="round" d="M 153.483603 22.013571 L 171.487298 22.013571 L 171.487298 37.014172 L 153.483603 37.014172 Z M 153.483603 22.013571 " stroke="#000000" stroke-width="4.5" stroke-opacity="1" stroke-miterlimit="4"/><path fill="#c0845e" d="M 81.679688 21.054688 C 81.15625 16.324219 78.527344 13.695312 73.796875 13.171875 L 71.433594 18.6875 L 76.164062 23.417969 Z M 81.679688 21.054688 " fill-opacity="1" fill-rule="nonzero"/><g clip-path="url(#47786a15ce)"><path stroke-linecap="round" transform="matrix(0.371584, 0, 0, 0.371584, 11.450396, 12.055817)" fill="none" stroke-linejoin="round" d="M 188.999553 24.217565 C 187.590889 11.48703 180.516033 4.412174 167.785498 3.00351 L 161.425487 17.847041 L 174.156022 30.577577 Z M 188.999553 24.217565 " stroke="#000000" stroke-width="4.5" stroke-opacity="1" stroke-miterlimit="4"/></g><path stroke-linecap="round" transform="matrix(0.371584, 0, 0, 0.371584, 11.450396, 12.055817)" fill="none" stroke-linejoin="round" d="M 46.871693 145.13137 L 97.783322 94.219741 " stroke="#000000" stroke-width="4.5" stroke-opacity="1" stroke-miterlimit="4"/><path stroke-linecap="round" transform="matrix(0.371584, 0, 0, 0.371584, 11.450396, 12.055817)" fill="none" stroke-linejoin="round" d="M 75.5811 129.152498 L 79.817604 133.389002 " stroke="#000000" stroke-width="4.5" stroke-opacity="1" stroke-miterlimit="4"/><path stroke-linecap="round" transform="matrix(0.371584, 0, 0, 0.371584, 11.450396, 12.055817)" fill="none" stroke-linejoin="round" d="M 69.210577 135.51251 L 75.5811 141.883034 " stroke="#000000" stroke-width="4.5" stroke-opacity="1" stroke-miterlimit="4"/><path stroke-linecap="round" transform="matrix(0.371584, 0, 0, 0.371584, 11.450396, 12.055817)" fill="none" stroke-linejoin="round" d="M 62.850565 116.421963 L 58.603549 112.174947 " stroke="#000000" stroke-width="4.5" stroke-opacity="1" stroke-miterlimit="4"/><path stroke-linecap="round" transform="matrix(0.371584, 0, 0, 0.371584, 11.450396, 12.055817)" fill="none" stroke-linejoin="round" d="M 56.480041 122.781974 L 50.12003 116.421963 " stroke="#000000" stroke-width="4.5" stroke-opacity="1" stroke-miterlimit="4"/><path stroke-linecap="round" transform="matrix(0.371584, 0, 0, 0.371584, 11.450396, 12.055817)" fill-opacity="1" fill="#c0845e" fill-rule="nonzero" stroke-linejoin="round" d="M 170.077205 130.350914 L 167.564737 129.50992 C 165.031245 128.668927 162.729026 127.239239 160.836791 125.357516 C 158.555597 123.076322 156.968222 120.19592 156.242866 117.052708 L 150.986658 94.282816 C 135.428283 98.529831 125.525587 108.432527 121.289084 123.98039 L 144.058976 129.236598 C 147.202188 129.961954 150.072078 131.559841 152.353272 133.841036 C 154.245507 135.73327 155.664683 138.035489 156.516188 140.568982 L 157.346669 143.081449 C 160.868329 146.592596 166.566058 146.592596 170.077205 143.081449 C 173.588351 139.55979 173.588351 133.86206 170.077205 130.350914 Z M 170.077205 130.350914 " stroke="#000000" stroke-width="4.5" stroke-opacity="1" stroke-miterlimit="4"/><path stroke-linecap="round" transform="matrix(0.371584, 0, 0, 0.371584, 11.450396, 12.055817)" fill-opacity="1" fill="#6d6370" fill-rule="nonzero" stroke-linejoin="round" d="M 170.077205 130.350914 L 167.564737 129.50992 C 165.031245 128.668927 162.729026 127.239239 160.836791 125.357516 C 158.555597 123.076322 156.968222 120.19592 156.242866 117.052708 L 153.415026 104.837281 C 143.239008 109.042247 136.048515 116.243252 131.833037 126.41927 L 144.058976 129.236598 C 147.202188 129.961954 150.072078 131.559841 152.353272 133.841036 C 154.245507 135.73327 155.664683 138.035489 156.516188 140.568982 L 157.346669 143.081449 C 160.868329 146.592596 166.566058 146.592596 170.077205 143.081449 C 173.588351 139.55979 173.588351 133.86206 170.077205 130.350914 Z M 170.077205 130.350914 " stroke="#000000" stroke-width="4.5" stroke-opacity="1" stroke-miterlimit="4"/></svg>