<svg xmlns="http://www.w3.org/2000/svg" xmlns:xlink="http://www.w3.org/1999/xlink" width="131" zoomAndPan="magnify" viewBox="0 0 98.25 98.249996" height="131" preserveAspectRatio="xMidYMid meet" version="1.0"><defs><clipPath id="7534fa6cc9"><path d="M 0 0 L 97.195312 0 L 97.195312 97.195312 L 0 97.195312 Z M 0 0 " clip-rule="nonzero"/></clipPath><clipPath id="24fa759b45"><path d="M 48.597656 0 C 21.757812 0 0 21.757812 0 48.597656 C 0 75.4375 21.757812 97.195312 48.597656 97.195312 C 75.4375 97.195312 97.195312 75.4375 97.195312 48.597656 C 97.195312 21.757812 75.4375 0 48.597656 0 Z M 48.597656 0 " clip-rule="nonzero"/></clipPath><clipPath id="ef2e2f69b6"><path d="M 14 10.921875 L 83.230469 10.921875 L 83.230469 86.21875 L 14 86.21875 Z M 14 10.921875 " clip-rule="nonzero"/></clipPath></defs><g clip-path="url(#7534fa6cc9)"><g clip-path="url(#24fa759b45)"><path fill="#8fabd1" d="M 0 0 L 97.195312 0 L 97.195312 97.195312 L 0 97.195312 Z M 0 0 " fill-opacity="1" fill-rule="nonzero"/></g></g><g clip-path="url(#ef2e2f69b6)"><path fill="#ffeed2" d="M 78.777344 66.816406 L 78.769531 66.816406 C 79.457031 63.140625 79.90625 59.476562 80.132812 55.800781 C 80.628906 47.640625 80.015625 39.472656 78.289062 31.3125 C 79.570312 30.644531 82.148438 31.042969 83.003906 29.390625 C 83.003906 29.390625 79.785156 28.007812 78.15625 25.414062 C 77.945312 25.082031 77.742188 24.703125 77.53125 24.296875 C 77.019531 23.285156 76.511719 22.0625 75.941406 20.832031 C 75.035156 18.867188 73.988281 16.871094 72.59375 15.566406 C 72.539062 15.511719 72.484375 15.460938 72.429688 15.414062 C 69.464844 12.820312 59.898438 10.921875 48.550781 10.921875 C 37.203125 10.921875 27.636719 12.820312 24.671875 15.414062 C 24.617188 15.460938 24.5625 15.511719 24.507812 15.566406 C 23.109375 16.871094 22.066406 18.867188 21.160156 20.832031 C 20.589844 22.0625 20.078125 23.285156 19.570312 24.296875 C 19.355469 24.703125 19.15625 25.082031 18.945312 25.414062 C 17.316406 28.007812 14.097656 29.390625 14.097656 29.390625 C 14.953125 31.042969 17.527344 30.644531 18.808594 31.3125 C 17.085938 39.472656 16.472656 47.640625 16.96875 55.800781 C 17.195312 59.476562 17.644531 63.140625 18.332031 66.816406 L 18.324219 66.816406 C 18.324219 66.816406 13.9375 68.132812 14.085938 70.652344 C 14.222656 73.058594 17.566406 73.976562 19.179688 74.273438 C 19.484375 74.332031 19.78125 74.414062 20.074219 74.523438 C 20.363281 75.601562 20.675781 76.675781 21.007812 77.757812 C 21.550781 79.53125 22.78125 81.023438 24.453125 81.832031 C 28.074219 83.585938 35.65625 86.21875 48.550781 86.21875 C 61.445312 86.21875 69.027344 83.585938 72.648438 81.832031 C 74.316406 81.023438 75.550781 79.53125 76.089844 77.757812 C 76.425781 76.675781 76.734375 75.601562 77.027344 74.523438 C 77.320312 74.414062 77.617188 74.332031 77.921875 74.273438 C 79.535156 73.976562 82.875 73.058594 83.015625 70.652344 C 83.164062 68.132812 78.777344 66.816406 78.777344 66.816406 Z M 78.777344 66.816406 " fill-opacity="1" fill-rule="nonzero"/></g><path fill="#b29576" d="M 78.386719 68.808594 C 78.386719 68.808594 80.582031 69.398438 80.582031 70.363281 C 80.582031 71.320312 78.941406 71.796875 77.738281 71.734375 C 77.96875 70.757812 78.1875 69.785156 78.386719 68.808594 Z M 78.386719 68.808594 " fill-opacity="1" fill-rule="nonzero"/><path fill="#b29576" d="M 19.363281 71.734375 C 18.160156 71.796875 16.519531 71.320312 16.519531 70.363281 C 16.519531 69.398438 18.710938 68.808594 18.710938 68.808594 C 18.914062 69.785156 19.132812 70.757812 19.363281 71.734375 Z M 19.363281 71.734375 " fill-opacity="1" fill-rule="nonzero"/><path fill="#9e4949" d="M 78.289062 31.3125 C 80.015625 39.472656 80.628906 47.640625 80.132812 55.800781 C 79.90625 59.476562 79.457031 63.140625 78.769531 66.816406 C 78.65625 67.476562 78.527344 68.144531 78.386719 68.808594 C 78.1875 69.785156 77.96875 70.757812 77.738281 71.734375 C 76.535156 71.667969 76.394531 71.199219 75.234375 71.285156 C 74.074219 71.371094 73.496094 73.527344 71.492188 73.921875 C 69.484375 74.316406 67.265625 72.554688 65.210938 72.816406 C 63.160156 73.078125 60.261719 75.644531 58.234375 75.9375 C 56.203125 76.234375 55.28125 75.328125 53.566406 75.171875 C 51.855469 75.015625 50.480469 76.925781 48.550781 76.925781 C 46.617188 76.925781 45.246094 75.015625 43.53125 75.171875 C 41.820312 75.328125 40.898438 76.234375 38.867188 75.9375 C 36.839844 75.644531 33.941406 73.078125 31.886719 72.816406 C 29.835938 72.554688 27.617188 74.316406 25.605469 73.921875 C 23.601562 73.527344 23.027344 71.371094 21.867188 71.285156 C 20.707031 71.199219 20.566406 71.667969 19.363281 71.734375 C 19.132812 70.757812 18.914062 69.785156 18.710938 68.808594 C 18.574219 68.144531 18.445312 67.476562 18.332031 66.816406 C 17.644531 63.140625 17.195312 59.476562 16.96875 55.800781 C 16.472656 47.640625 17.085938 39.472656 18.808594 31.3125 C 20.089844 31.972656 19.78125 34.816406 22.273438 35.074219 C 24.761719 35.34375 26.464844 33.453125 28.207031 33.902344 C 29.949219 34.351562 30.425781 36.242188 33.273438 36.59375 C 36.117188 36.945312 37.757812 35.457031 41 36.003906 C 44.242188 36.550781 45.554688 38.355469 48.550781 38.355469 C 51.546875 38.355469 52.855469 36.550781 56.101562 36.003906 C 59.34375 35.457031 60.984375 36.945312 63.828125 36.59375 C 66.675781 36.242188 67.148438 34.351562 68.894531 33.902344 C 70.636719 33.453125 72.335938 35.34375 74.828125 35.074219 C 77.320312 34.816406 77.007812 31.972656 78.289062 31.3125 Z M 78.289062 31.3125 " fill-opacity="1" fill-rule="nonzero"/><path fill="#7f5d46" d="M 72.59375 15.566406 C 73.988281 16.871094 75.035156 18.867188 75.941406 20.832031 C 75.941406 20.832031 66.773438 27.753906 48.550781 27.753906 C 30.328125 27.753906 21.160156 20.832031 21.160156 20.832031 C 22.066406 18.867188 23.109375 16.871094 24.507812 15.566406 C 23.996094 16.058594 23.722656 16.578125 23.722656 17.113281 C 23.722656 20.539062 34.839844 23.308594 48.550781 23.308594 C 62.261719 23.308594 73.375 20.539062 73.375 17.113281 C 73.375 16.578125 73.101562 16.058594 72.59375 15.566406 Z M 72.59375 15.566406 " fill-opacity="1" fill-rule="nonzero"/><path fill="#ddcdb6" d="M 48.550781 31.175781 C 48.214844 31.175781 47.941406 31.449219 47.941406 31.785156 L 47.941406 34.011719 C 47.941406 34.347656 48.214844 34.621094 48.550781 34.621094 C 48.886719 34.621094 49.15625 34.347656 49.15625 34.011719 L 49.15625 31.785156 C 49.15625 31.449219 48.886719 31.175781 48.550781 31.175781 Z M 48.550781 31.175781 " fill-opacity="1" fill-rule="nonzero"/><path fill="#ddcdb6" d="M 34.96875 29.816406 C 34.648438 29.703125 34.304688 29.867188 34.191406 30.179688 L 33.425781 32.292969 C 33.308594 32.609375 33.472656 32.957031 33.789062 33.070312 C 33.859375 33.097656 33.925781 33.109375 33.996094 33.109375 C 34.246094 33.109375 34.476562 32.953125 34.566406 32.707031 L 35.332031 30.59375 C 35.445312 30.28125 35.28125 29.929688 34.96875 29.816406 Z M 34.96875 29.816406 " fill-opacity="1" fill-rule="nonzero"/><path fill="#ddcdb6" d="M 26.425781 27.242188 C 26.144531 27.058594 25.769531 27.144531 25.585938 27.425781 L 24.042969 29.835938 C 23.863281 30.121094 23.945312 30.496094 24.230469 30.675781 C 24.332031 30.742188 24.445312 30.769531 24.554688 30.769531 C 24.757812 30.769531 24.953125 30.671875 25.070312 30.492188 L 26.613281 28.082031 C 26.792969 27.796875 26.710938 27.421875 26.425781 27.242188 Z M 26.425781 27.242188 " fill-opacity="1" fill-rule="nonzero"/><path fill="#ddcdb6" d="M 62.910156 30.179688 C 62.796875 29.867188 62.449219 29.703125 62.132812 29.816406 C 61.816406 29.929688 61.652344 30.28125 61.765625 30.59375 L 62.53125 32.707031 C 62.621094 32.953125 62.855469 33.109375 63.105469 33.109375 C 63.171875 33.109375 63.242188 33.097656 63.3125 33.070312 C 63.625 32.957031 63.789062 32.609375 63.675781 32.292969 Z M 62.910156 30.179688 " fill-opacity="1" fill-rule="nonzero"/><path fill="#ddcdb6" d="M 71.511719 27.425781 C 71.332031 27.144531 70.957031 27.0625 70.675781 27.242188 C 70.390625 27.421875 70.308594 27.796875 70.488281 28.082031 L 72.03125 30.492188 C 72.148438 30.671875 72.34375 30.769531 72.542969 30.769531 C 72.65625 30.769531 72.769531 30.742188 72.871094 30.675781 C 73.152344 30.496094 73.238281 30.121094 73.054688 29.835938 Z M 71.511719 27.425781 " fill-opacity="1" fill-rule="nonzero"/><path fill="#ddcdb6" d="M 22.277344 73.449219 C 22.207031 73.121094 21.886719 72.910156 21.558594 72.980469 C 21.230469 73.050781 21.019531 73.371094 21.089844 73.699219 L 21.496094 75.636719 C 21.554688 75.921875 21.808594 76.121094 22.089844 76.121094 C 22.132812 76.121094 22.175781 76.113281 22.214844 76.105469 C 22.542969 76.039062 22.753906 75.714844 22.683594 75.386719 Z M 22.277344 73.449219 " fill-opacity="1" fill-rule="nonzero"/><path fill="#ddcdb6" d="M 31.78125 75.289062 C 31.445312 75.320312 31.203125 75.617188 31.234375 75.953125 L 31.507812 78.800781 C 31.539062 79.113281 31.800781 79.347656 32.113281 79.347656 C 32.132812 79.347656 32.152344 79.347656 32.171875 79.347656 C 32.503906 79.3125 32.75 79.019531 32.71875 78.683594 L 32.445312 75.835938 C 32.410156 75.5 32.109375 75.25 31.78125 75.289062 Z M 31.78125 75.289062 " fill-opacity="1" fill-rule="nonzero"/><path fill="#ddcdb6" d="M 75.542969 72.980469 C 75.214844 72.910156 74.890625 73.121094 74.824219 73.449219 L 74.414062 75.386719 C 74.347656 75.714844 74.554688 76.035156 74.882812 76.105469 C 74.925781 76.113281 74.96875 76.117188 75.007812 76.117188 C 75.289062 76.117188 75.542969 75.921875 75.605469 75.636719 L 76.011719 73.699219 C 76.082031 73.371094 75.871094 73.046875 75.542969 72.980469 Z M 75.542969 72.980469 " fill-opacity="1" fill-rule="nonzero"/><path fill="#ddcdb6" d="M 65.320312 75.289062 C 64.984375 75.25 64.6875 75.503906 64.65625 75.835938 L 64.382812 78.683594 C 64.351562 79.019531 64.59375 79.3125 64.929688 79.347656 C 64.949219 79.347656 64.96875 79.347656 64.988281 79.347656 C 65.296875 79.347656 65.5625 79.113281 65.589844 78.800781 L 65.863281 75.953125 C 65.898438 75.617188 65.652344 75.320312 65.320312 75.289062 Z M 65.320312 75.289062 " fill-opacity="1" fill-rule="nonzero"/><path fill="#ddcdb6" d="M 43.828125 77.25 C 43.492188 77.28125 43.25 77.578125 43.28125 77.914062 L 43.503906 80.292969 C 43.535156 80.609375 43.800781 80.84375 44.109375 80.84375 C 44.128906 80.84375 44.148438 80.84375 44.167969 80.839844 C 44.5 80.808594 44.746094 80.511719 44.714844 80.179688 L 44.488281 77.796875 C 44.457031 77.464844 44.15625 77.210938 43.828125 77.25 Z M 43.828125 77.25 " fill-opacity="1" fill-rule="nonzero"/><path fill="#ddcdb6" d="M 53.273438 77.25 C 52.945312 77.210938 52.640625 77.464844 52.609375 77.796875 L 52.386719 80.179688 C 52.351562 80.511719 52.597656 80.808594 52.933594 80.839844 C 52.953125 80.84375 52.972656 80.84375 52.992188 80.84375 C 53.300781 80.84375 53.566406 80.609375 53.59375 80.292969 L 53.820312 77.914062 C 53.851562 77.578125 53.605469 77.28125 53.273438 77.25 Z M 53.273438 77.25 " fill-opacity="1" fill-rule="nonzero"/><path fill="#655f68" d="M 76.304688 74.855469 C 76.535156 74.726562 76.777344 74.613281 77.027344 74.523438 C 76.734375 75.601562 76.425781 76.675781 76.089844 77.757812 C 76.089844 77.757812 66.316406 83.167969 48.550781 83.167969 C 30.78125 83.167969 21.007812 77.757812 21.007812 77.757812 C 20.675781 76.675781 20.363281 75.601562 20.074219 74.523438 C 20.324219 74.613281 20.566406 74.726562 20.796875 74.855469 C 21.117188 75.03125 21.550781 75.257812 22.089844 75.511719 C 24.007812 76.421875 27.308594 77.722656 32.113281 78.742188 C 35.394531 79.441406 39.382812 80.011719 44.109375 80.234375 C 45.523438 80.300781 47 80.339844 48.550781 80.339844 C 50.097656 80.339844 51.574219 80.300781 52.992188 80.234375 C 57.714844 80.011719 61.707031 79.441406 64.988281 78.742188 C 69.792969 77.722656 73.089844 76.421875 75.011719 75.511719 C 75.550781 75.257812 75.980469 75.03125 76.304688 74.855469 Z M 76.304688 74.855469 " fill-opacity="1" fill-rule="nonzero"/><path fill="#655f68" d="M 75.941406 20.832031 C 76.511719 22.0625 77.019531 23.285156 77.53125 24.296875 C 77.390625 24.402344 75.210938 26.035156 71 27.753906 C 66.179688 29.714844 58.6875 31.785156 48.550781 31.785156 C 38.410156 31.785156 30.921875 29.714844 26.097656 27.753906 C 21.890625 26.035156 19.710938 24.402344 19.570312 24.296875 C 20.078125 23.285156 20.589844 22.0625 21.160156 20.832031 C 21.160156 20.832031 30.328125 27.753906 48.550781 27.753906 C 66.773438 27.753906 75.941406 20.832031 75.941406 20.832031 Z M 75.941406 20.832031 " fill-opacity="1" fill-rule="nonzero"/><path fill="#655f68" d="M 60.527344 53.183594 C 61.222656 53.871094 61.222656 54.992188 60.527344 55.679688 L 58.519531 57.695312 C 57.824219 58.386719 56.707031 58.386719 56.015625 57.695312 L 55.558594 57.238281 L 55.558594 58.738281 C 55.558594 60.210938 54.375 61.394531 52.910156 61.394531 L 51.3125 61.394531 L 51.859375 61.941406 C 52.554688 62.632812 52.554688 63.75 51.859375 64.441406 L 49.851562 66.453125 C 49.15625 67.144531 48.035156 67.144531 47.347656 66.453125 L 45.332031 64.441406 C 44.636719 63.75 44.636719 62.632812 45.332031 61.941406 L 45.878906 61.394531 L 44.1875 61.394531 C 42.726562 61.394531 41.539062 60.210938 41.539062 58.738281 L 41.539062 57.332031 L 41.085938 57.785156 C 40.390625 58.480469 39.273438 58.480469 38.582031 57.785156 L 36.570312 55.777344 C 35.878906 55.085938 35.878906 53.960938 36.570312 53.273438 L 38.582031 51.257812 C 39.273438 50.566406 40.390625 50.566406 41.085938 51.257812 L 41.539062 51.714844 L 41.539062 50.027344 C 41.539062 48.5625 42.726562 47.378906 44.1875 47.378906 L 45.605469 47.378906 L 45.238281 47.015625 C 44.546875 46.320312 44.546875 45.203125 45.238281 44.511719 L 47.25 42.503906 C 47.941406 41.808594 49.066406 41.808594 49.753906 42.503906 L 51.769531 44.511719 C 52.460938 45.203125 52.460938 46.320312 51.769531 47.015625 L 51.40625 47.378906 L 52.910156 47.378906 C 54.375 47.378906 55.558594 48.5625 55.558594 50.027344 L 55.558594 51.625 L 56.015625 51.167969 C 56.707031 50.476562 57.824219 50.476562 58.519531 51.167969 Z M 60.527344 53.183594 " fill-opacity="1" fill-rule="nonzero"/><path fill="#f9b132" d="M 58.378906 54.386719 C 58.378906 54.648438 58.285156 54.875 58.097656 55.058594 C 57.914062 55.246094 57.6875 55.339844 57.425781 55.339844 C 57.160156 55.339844 56.9375 55.246094 56.75 55.058594 C 56.5625 54.875 56.472656 54.648438 56.472656 54.386719 C 56.472656 54.121094 56.5625 53.898438 56.75 53.710938 C 56.9375 53.527344 57.160156 53.433594 57.425781 53.433594 C 57.6875 53.433594 57.914062 53.527344 58.097656 53.710938 C 58.285156 53.898438 58.378906 54.121094 58.378906 54.386719 Z M 58.378906 54.386719 " fill-opacity="1" fill-rule="nonzero"/><path fill="#f9b132" d="M 48.550781 50.273438 C 50.820312 50.273438 52.65625 52.113281 52.65625 54.386719 C 52.65625 56.652344 50.820312 58.492188 48.550781 58.492188 C 46.277344 58.492188 44.445312 56.652344 44.445312 54.386719 C 44.445312 52.113281 46.277344 50.273438 48.550781 50.273438 Z M 48.550781 50.273438 " fill-opacity="1" fill-rule="nonzero"/><path fill="#f9b132" d="M 49.503906 45.515625 C 49.503906 45.777344 49.410156 46.003906 49.226562 46.1875 C 49.039062 46.375 48.8125 46.46875 48.550781 46.46875 C 48.285156 46.46875 48.0625 46.375 47.875 46.1875 C 47.691406 46.003906 47.597656 45.777344 47.597656 45.515625 C 47.597656 45.25 47.691406 45.027344 47.875 44.839844 C 48.0625 44.652344 48.285156 44.5625 48.550781 44.5625 C 48.8125 44.5625 49.039062 44.652344 49.226562 44.839844 C 49.410156 45.027344 49.503906 45.25 49.503906 45.515625 Z M 49.503906 45.515625 " fill-opacity="1" fill-rule="nonzero"/><path fill="#f9b132" d="M 49.503906 63.257812 C 49.503906 63.519531 49.410156 63.746094 49.226562 63.933594 C 49.039062 64.117188 48.8125 64.210938 48.550781 64.210938 C 48.285156 64.210938 48.0625 64.117188 47.875 63.933594 C 47.691406 63.746094 47.597656 63.519531 47.597656 63.257812 C 47.597656 62.996094 47.691406 62.769531 47.875 62.582031 C 48.0625 62.398438 48.285156 62.304688 48.550781 62.304688 C 48.8125 62.304688 49.039062 62.398438 49.226562 62.582031 C 49.410156 62.769531 49.503906 62.996094 49.503906 63.257812 Z M 49.503906 63.257812 " fill-opacity="1" fill-rule="nonzero"/><path fill="#f9b132" d="M 40.628906 54.386719 C 40.628906 54.648438 40.535156 54.875 40.351562 55.058594 C 40.164062 55.246094 39.9375 55.339844 39.675781 55.339844 C 39.414062 55.339844 39.1875 55.246094 39 55.058594 C 38.816406 54.875 38.722656 54.648438 38.722656 54.386719 C 38.722656 54.121094 38.816406 53.898438 39 53.710938 C 39.1875 53.527344 39.414062 53.433594 39.675781 53.433594 C 39.9375 53.433594 40.164062 53.527344 40.351562 53.710938 C 40.535156 53.898438 40.628906 54.121094 40.628906 54.386719 Z M 40.628906 54.386719 " fill-opacity="1" fill-rule="nonzero"/><path fill="#933a3a" d="M 78.289062 31.3125 C 77.007812 31.972656 77.320312 34.816406 74.828125 35.074219 C 72.335938 35.34375 70.636719 33.453125 68.894531 33.902344 C 67.148438 34.351562 66.675781 36.242188 63.828125 36.59375 C 60.984375 36.945312 59.34375 35.457031 56.101562 36.003906 C 52.855469 36.550781 51.546875 38.355469 48.550781 38.355469 C 45.554688 38.355469 44.242188 36.550781 41 36.003906 C 37.757812 35.457031 36.117188 36.945312 33.273438 36.59375 C 30.425781 36.242188 29.949219 34.351562 28.207031 33.902344 C 26.464844 33.453125 24.761719 35.34375 22.273438 35.074219 C 19.78125 34.816406 20.089844 31.972656 18.808594 31.3125 C 18.808594 31.3125 17.832031 37.839844 22.089844 37.132812 C 26.347656 36.425781 26.585938 35.625 29.339844 38.203125 C 32.089844 40.777344 32.8125 40.777344 36.402344 39.460938 C 39.988281 38.144531 41.632812 38.460938 44.820312 40.097656 C 48.007812 41.734375 51.308594 41.375 54.625 39.222656 C 54.625 39.222656 56.972656 37.742188 61.046875 40.097656 C 65.121094 42.453125 68.351562 38.007812 68.351562 38.007812 C 68.351562 38.007812 70.699219 36.351562 71.773438 39.460938 C 72.847656 42.574219 74.328125 65.125 61.046875 71.734375 C 61.046875 71.734375 60.121094 72.265625 56.449219 72.867188 C 52.84375 73.457031 48.550781 76.925781 48.550781 76.925781 C 50.480469 76.925781 51.855469 75.015625 53.566406 75.171875 C 55.28125 75.328125 56.203125 76.234375 58.234375 75.9375 C 60.261719 75.644531 63.160156 73.078125 65.210938 72.816406 C 67.265625 72.554688 69.484375 74.316406 71.492188 73.921875 C 73.496094 73.527344 74.074219 71.371094 75.234375 71.285156 C 76.394531 71.199219 76.535156 71.667969 77.738281 71.734375 C 77.96875 70.757812 78.1875 69.785156 78.386719 68.808594 C 78.527344 68.144531 78.65625 67.476562 78.769531 66.816406 C 79.457031 63.140625 79.90625 59.476562 80.132812 55.800781 C 80.628906 47.640625 80.015625 39.472656 78.289062 31.3125 Z M 78.289062 31.3125 " fill-opacity="1" fill-rule="nonzero"/><path fill="#f9b132" d="M 44.210938 49.191406 C 43.972656 48.953125 43.589844 48.953125 43.351562 49.191406 C 43.113281 49.425781 43.113281 49.8125 43.351562 50.046875 L 43.785156 50.480469 C 43.902344 50.597656 44.058594 50.65625 44.214844 50.65625 C 44.367188 50.65625 44.523438 50.597656 44.644531 50.480469 C 44.878906 50.242188 44.878906 49.859375 44.644531 49.621094 Z M 44.210938 49.191406 " fill-opacity="1" fill-rule="nonzero"/><path fill="#f9b132" d="M 43.785156 58.292969 L 43.351562 58.722656 C 43.113281 58.960938 43.113281 59.34375 43.351562 59.582031 C 43.472656 59.699219 43.625 59.761719 43.78125 59.761719 C 43.9375 59.761719 44.09375 59.699219 44.210938 59.582031 L 44.644531 59.152344 C 44.878906 58.914062 44.878906 58.53125 44.644531 58.292969 C 44.40625 58.054688 44.019531 58.054688 43.785156 58.292969 Z M 43.785156 58.292969 " fill-opacity="1" fill-rule="nonzero"/><path fill="#f9b132" d="M 53.316406 58.292969 C 53.078125 58.054688 52.695312 58.054688 52.457031 58.292969 C 52.21875 58.53125 52.21875 58.914062 52.457031 59.152344 L 52.890625 59.582031 C 53.007812 59.699219 53.164062 59.761719 53.320312 59.761719 C 53.472656 59.761719 53.628906 59.699219 53.75 59.582031 C 53.984375 59.34375 53.984375 58.960938 53.75 58.722656 Z M 53.316406 58.292969 " fill-opacity="1" fill-rule="nonzero"/><path fill="#f9b132" d="M 52.886719 50.65625 C 53.042969 50.65625 53.199219 50.597656 53.316406 50.480469 L 53.746094 50.046875 C 53.984375 49.8125 53.984375 49.425781 53.746094 49.191406 C 53.511719 48.953125 53.125 48.953125 52.886719 49.191406 L 52.457031 49.621094 C 52.21875 49.859375 52.21875 50.242188 52.457031 50.480469 C 52.578125 50.597656 52.730469 50.65625 52.886719 50.65625 Z M 52.886719 50.65625 " fill-opacity="1" fill-rule="nonzero"/></svg>